<svg xmlns="http://www.w3.org/2000/svg" viewBox="0 0 40 40">
  <defs>
    <style>.cls-avatar-1{fill:#D7BDE2;}.cls-avatar-2{fill:#8E44AD;}</style>
  </defs>
  <g id="Camada_2" data-name="Camada 2">
    <g id="Layer_1" data-name="Layer 1">
      <circle class="cls-avatar-1" cx="20" cy="20" r="20" />
      <path class="cls-avatar-2" d="M20,8.9a5.8,5.8,0,1,0,5.8,5.8A5.8,5.8,0,0,0,20,8.9Z" />
      <path class="cls-avatar-2"
        d="M27.3,24.4a8.39,8.39,0,0,0-6-2.5H18.7a8.39,8.39,0,0,0-6,2.5,8.57,8.57,0,0,0-2.5,6,.58.58,0,0,0,.6.6H29a.58.58,0,0,0,.6-.6A8.12,8.12,0,0,0,27.3,24.4Z" />
    </g>
  </g>
</svg>
