<?xml version="1.0" encoding="utf-8"?>
<svg viewBox="-422.9668 407.231 705.0408 236.2" xmlns="http://www.w3.org/2000/svg">
  <g transform="matrix(1, 0, 0, 1, 0, -2.842170943040401e-14)">
    <g>
      <title>Icon</title>
      <path d="M -319.126 408.231 C -326.426 409.131 -339.326 412.031 -341.026 413.131 C -342.626 414.031 -340.726 418.831 -337.226 422.631 C -327.626 433.031 -323.526 447.731 -327.926 456.031 C -330.926 461.631 -335.226 463.431 -344.126 462.731 C -348.226 462.331 -354.526 461.231 -358.126 460.131 C -367.326 457.331 -369.926 457.431 -370.826 460.831 C -371.326 462.431 -371.626 466.631 -371.626 470.231 L -371.626 476.831 L -364.926 484.031 C -353.226 496.331 -351.526 502.531 -357.626 510.431 C -362.226 516.531 -371.326 523.831 -378.026 526.931 C -382.726 529.131 -384.226 529.331 -390.526 528.731 C -394.426 528.431 -398.526 527.931 -399.626 527.631 C -402.526 526.831 -412.526 535.631 -416.926 542.831 L -420.426 548.631 L -418.326 556.831 C -416.126 565.331 -412.026 575.631 -407.726 583.231 L -405.126 587.631 L -405.126 579.031 C -405.126 571.931 -404.726 569.731 -402.526 565.331 C -398.226 556.631 -389.926 552.131 -378.426 552.131 C -373.526 552.131 -373.126 551.931 -373.126 549.831 C -373.126 548.531 -371.926 545.131 -370.526 542.331 C -367.226 535.731 -361.326 531.431 -353.426 530.031 C -345.426 528.531 -328.726 529.431 -323.326 531.631 C -317.626 533.931 -311.626 540.931 -310.026 547.231 C -309.126 550.631 -308.226 552.131 -307.126 552.131 C -305.826 552.131 -305.326 550.931 -304.826 546.731 C -304.226 540.731 -301.526 534.731 -297.926 531.431 C -295.026 528.731 -287.426 525.231 -284.326 525.131 C -282.226 525.131 -282.126 524.831 -282.126 515.731 C -282.126 507.131 -282.326 506.231 -284.126 505.631 C -287.126 504.731 -291.126 498.231 -291.126 494.331 C -291.126 489.431 -288.726 484.731 -285.026 482.031 C -281.726 479.731 -281.126 479.631 -257.526 479.331 C -241.526 479.131 -231.926 479.331 -229.126 480.131 C -224.526 481.331 -219.126 486.331 -219.126 489.431 C -219.126 490.931 -218.026 490.331 -213.926 486.731 C -211.026 484.231 -206.326 480.931 -203.426 479.431 C -200.526 477.831 -198.126 476.131 -198.126 475.631 C -198.126 474.731 -200.826 469.731 -205.726 461.331 C -207.026 459.131 -208.126 458.331 -209.126 458.831 C -216.726 462.131 -225.726 464.431 -233.626 464.831 C -246.026 465.631 -251.926 463.831 -260.826 456.631 C -269.726 449.431 -273.426 447.731 -286.726 444.631 C -296.226 442.331 -298.326 441.531 -301.026 438.731 C -304.926 434.731 -307.626 427.131 -309.226 415.831 C -309.926 410.731 -310.926 407.231 -311.526 407.231 C -312.126 407.331 -315.526 407.731 -319.126 408.231 Z" stroke="none" style="fill: rgb(142, 68, 173);"/>
      <path d="M -299.726 413.431 C -299.026 420.831 -296.326 430.731 -294.726 432.031 C -294.126 432.531 -288.826 434.131 -282.926 435.531 C -270.226 438.531 -263.526 441.731 -256.326 448.131 C -253.426 450.731 -249.326 453.331 -247.226 454.031 C -239.626 456.231 -223.626 454.931 -216.726 451.431 L -213.826 449.931 L -221.226 442.531 C -240.926 422.631 -266.926 410.531 -295.526 407.831 L -300.426 407.331 L -299.726 413.431 Z" stroke="none" style="fill: rgb(142, 68, 173);"/>
      <path d="M -223.526 415.031 C -223.826 415.431 -222.426 417.731 -220.526 420.031 L -217.026 424.131 L -219.326 425.031 C -220.626 425.531 -223.626 426.531 -225.926 427.231 C -228.226 427.831 -229.826 428.831 -229.526 429.231 C -228.326 431.331 -219.626 429.831 -206.026 425.231 C -190.626 420.131 -187.126 418.631 -187.126 417.131 C -187.126 415.331 -190.826 415.531 -197.526 417.831 C -201.326 419.131 -205.226 420.131 -206.126 420.131 C -207.126 420.131 -211.126 418.731 -215.126 417.131 C -223.426 413.731 -222.826 413.831 -223.526 415.031 Z" stroke="none" style="fill: rgb(142, 68, 173);"/>
      <path d="M -360.126 421.231 C -390.226 437.631 -410.726 463.931 -419.226 497.131 C -421.426 505.631 -423.726 528.031 -422.726 530.731 C -422.126 532.231 -421.326 531.731 -416.826 527.431 C -406.826 517.731 -405.326 517.331 -391.026 518.631 C -383.926 519.331 -383.226 519.231 -379.026 516.631 C -376.626 515.031 -372.026 511.231 -368.826 508.031 L -363.026 502.231 L -364.726 498.931 C -365.626 497.131 -369.226 492.831 -372.726 489.431 C -376.126 486.131 -379.526 482.231 -380.226 481.031 C -381.726 478.031 -381.726 464.031 -380.126 458.231 C -379.526 455.831 -377.726 452.531 -376.126 450.931 C -372.526 447.331 -368.526 447.231 -355.726 450.731 C -349.926 452.231 -344.226 453.131 -341.326 452.931 L -336.626 452.631 L -336.326 448.231 C -335.926 442.331 -338.326 436.131 -343.826 429.531 C -346.226 426.531 -348.926 422.531 -349.826 420.631 C -350.726 418.731 -351.726 417.131 -352.026 417.131 C -352.326 417.131 -356.026 419.031 -360.126 421.231 Z" stroke="none" style="fill: rgb(142, 68, 173);"/>
      <path d="M -235.126 423.931 C -235.126 424.431 -234.526 425.531 -233.826 426.531 C -232.926 427.831 -232.026 428.031 -230.326 427.431 C -228.126 426.631 -228.126 426.531 -231.526 424.831 C -233.526 423.931 -235.126 423.531 -235.126 423.931 Z" stroke="none" style="fill: rgb(142, 68, 173);"/>
      <path d="M -200.226 488.731 C -203.326 490.531 -207.526 493.931 -209.626 496.231 L -213.426 500.431 L -212.926 515.331 C -212.326 529.931 -212.226 530.431 -209.426 534.431 C -207.826 536.731 -206.026 539.531 -205.626 540.631 C -205.126 541.731 -204.526 552.531 -204.226 564.531 L -203.626 586.531 L -199.426 578.031 C -186.326 551.731 -183.526 521.131 -191.626 492.531 C -192.626 489.331 -193.626 486.331 -194.026 486.031 C -194.326 485.631 -197.126 486.931 -200.226 488.731 Z" stroke="none" style="fill: rgb(142, 68, 173);"/>
      <path d="M -279.826 490.331 C -282.026 493.231 -282.126 494.131 -280.126 496.131 C -279.026 497.231 -277.026 498.131 -275.626 498.131 L -273.126 498.131 L -273.126 516.631 L -273.126 535.131 L -280.126 535.131 C -286.726 535.131 -287.426 535.331 -290.826 538.431 C -293.926 541.331 -294.526 542.531 -294.926 547.331 L -295.326 552.931 L -291.826 554.031 C -286.926 555.731 -279.826 563.531 -278.226 569.131 C -277.326 572.431 -277.126 582.131 -277.326 605.131 C -277.626 633.031 -277.826 637.031 -279.426 639.831 L -281.226 643.131 L -252.626 643.131 C -221.026 643.131 -219.826 642.931 -216.126 636.831 C -214.226 633.831 -214.126 631.531 -214.126 589.831 C -214.126 542.131 -214.226 541.031 -219.726 537.431 C -221.526 536.331 -225.126 535.431 -229.526 535.131 L -236.626 534.631 L -236.926 516.531 L -237.126 498.531 L -232.926 497.531 C -229.526 496.831 -228.526 496.131 -228.326 494.331 C -227.626 489.331 -228.526 489.131 -254.626 489.131 C -272.826 489.131 -279.126 489.431 -279.826 490.331 Z M -245.326 516.331 L -245.626 534.631 L -254.826 534.931 L -264.126 535.231 L -264.126 516.631 L -264.126 498.131 L -254.626 498.131 L -245.126 498.131 L -245.326 516.331 Z M -252.326 562.731 C -250.126 564.231 -250.126 564.531 -250.126 589.031 C -250.126 615.531 -250.226 616.131 -255.226 616.131 C -259.726 616.131 -260.226 613.131 -259.926 587.231 C -259.626 565.531 -259.526 563.831 -257.726 562.531 C -255.226 560.731 -255.026 560.831 -252.326 562.731 Z M -232.926 563.531 C -231.526 565.531 -232.026 613.631 -233.326 614.931 C -234.826 616.431 -238.426 616.431 -239.926 614.931 C -241.226 613.631 -241.726 565.531 -240.326 563.531 C -238.726 561.131 -234.526 561.131 -232.926 563.531 Z" stroke="none" style="fill: rgb(142, 68, 173);"/>
      <path d="M -225.426 505.531 C -226.826 506.631 -227.126 508.431 -227.126 515.831 C -227.126 524.731 -227.026 524.931 -224.626 525.331 L -222.126 525.831 L -222.826 515.231 C -223.126 509.431 -223.426 504.531 -223.526 504.431 C -223.626 504.331 -224.426 504.831 -225.426 505.531 Z" stroke="none" style="fill: rgb(142, 68, 173);"/>
      <path d="M -356.026 540.931 C -361.326 543.631 -363.126 546.831 -363.826 554.931 C -364.326 561.031 -364.726 562.131 -366.226 562.131 C -368.026 562.131 -368.126 563.831 -368.126 602.631 L -368.126 643.131 L -341.126 643.131 L -314.126 643.131 L -314.126 602.631 L -314.126 562.131 L -316.626 562.131 C -319.026 562.131 -319.126 561.931 -319.126 555.331 C -319.126 547.331 -321.126 543.331 -326.426 540.831 C -331.526 538.331 -351.226 538.431 -356.026 540.931 Z M -328.726 549.731 C -327.626 550.731 -327.126 553.131 -327.126 556.731 L -327.126 562.131 L -341.126 562.131 L -355.126 562.131 L -355.126 557.031 C -355.126 548.331 -354.826 548.131 -341.626 548.131 C -332.626 548.131 -329.926 548.431 -328.726 549.731 Z" stroke="none" style="fill: rgb(142, 68, 173);"/>
      <path d="M -388.726 564.031 C -395.226 568.031 -395.126 567.331 -395.126 602.831 L -395.126 635.131 L -391.826 638.731 C -389.026 641.831 -387.726 642.431 -383.326 642.931 L -378.126 643.431 L -378.126 602.731 L -378.126 562.131 L -381.826 562.131 C -383.926 562.131 -387.026 563.031 -388.726 564.031 Z" stroke="none" style="fill: rgb(142, 68, 173);"/>
      <path d="M -304.126 602.631 L -304.126 643.131 L -300.626 643.131 C -295.826 643.131 -291.426 640.731 -289.126 636.831 C -287.226 633.831 -287.126 631.631 -287.126 602.631 C -287.126 573.331 -287.226 571.431 -289.126 568.331 C -291.326 564.731 -296.326 562.131 -301.126 562.131 L -304.126 562.131 L -304.126 602.631 Z" stroke="none" style="fill: rgb(142, 68, 173);"/>
    </g>
    <g>
      <title>Title</title>
      <path d="M -135.126 433.631 L -135.126 446.131 L -115.626 446.131 L -96.126 446.131 L -96.126 503.131 L -96.126 560.131 L -80.126 560.131 L -64.126 560.131 L -64.126 503.131 L -64.126 446.131 L -44.626 446.131 L -25.126 446.131 L -25.126 433.631 L -25.126 421.131 L -80.126 421.131 L -135.126 421.131 L -135.126 433.631 Z" stroke="none" style="fill: rgb(44, 62, 80);"/>
      <path d="M -11.126 490.531 L -11.126 560.131 L 4.874 560.131 L 20.874 560.131 L 21.074 534.331 L 21.374 508.631 L 27.574 508.831 C 30.974 508.931 34.574 509.431 35.574 509.931 C 36.574 510.531 43.274 521.231 50.474 533.831 C 61.374 552.831 64.174 556.931 66.974 558.331 C 69.774 559.831 73.074 560.131 86.174 560.131 C 94.774 560.131 101.874 559.831 101.874 559.531 C 101.874 559.231 94.974 547.731 86.674 533.931 C 74.374 513.731 70.574 508.231 67.174 505.831 C 64.774 504.131 62.874 502.431 62.874 502.131 C 62.874 501.731 64.774 500.531 67.074 499.531 C 69.474 498.531 74.074 495.031 77.474 491.931 C 85.774 484.131 89.074 476.831 89.674 464.931 C 90.574 447.531 83.774 435.331 69.174 428.131 C 57.974 422.631 53.474 422.031 19.674 421.431 L -11.126 420.931 L -11.126 490.531 Z M 45.474 446.631 C 50.874 448.231 56.074 452.831 57.774 457.431 C 60.674 465.031 57.974 476.331 52.074 481.331 C 47.374 485.231 42.474 486.531 31.374 486.531 L 21.374 486.631 L 21.074 465.831 L 20.874 445.131 L 30.674 445.131 C 36.474 445.131 42.574 445.731 45.474 446.631 Z" stroke="none" style="fill: rgb(44, 62, 80);"/>
      <path d="M 119.874 490.631 L 119.874 560.131 L 135.874 560.131 L 151.874 560.131 L 151.874 490.631 L 151.874 421.131 L 135.874 421.131 L 119.874 421.131 L 119.874 490.631 Z" stroke="none" style="fill: rgb(44, 62, 80);"/>
      <path d="M 177.874 490.631 L 177.874 560.131 L 193.874 560.131 L 209.874 560.131 L 210.074 536.831 L 210.374 513.631 L 227.374 513.031 C 239.374 512.631 245.974 511.931 249.874 510.631 C 271.674 503.731 281.974 489.731 282.074 467.131 C 282.074 450.331 276.574 438.731 264.774 431.131 C 251.874 422.831 242.174 421.131 205.174 421.131 L 177.874 421.131 L 177.874 490.631 Z M 240.874 448.331 C 249.274 453.231 252.874 464.631 249.374 475.331 C 245.974 486.131 240.474 489.031 222.374 489.831 L 209.874 490.431 L 209.874 467.731 L 209.874 444.931 L 223.174 445.331 C 235.374 445.631 236.774 445.831 240.874 448.331 Z" stroke="none" style="fill: rgb(44, 62, 80);"/>
      <path d="M -4.626 589.031 C -12.826 592.831 -16.526 598.631 -16.626 607.831 C -16.626 613.131 -16.226 614.531 -13.626 618.331 C -7.526 626.931 3.074 629.631 12.674 625.031 C 24.774 619.131 26.574 600.731 15.874 591.831 C 10.174 587.031 2.074 585.931 -4.626 589.031 Z M 10.974 597.931 C 14.974 601.531 16.074 608.731 13.374 613.731 C 11.474 617.231 6.674 620.131 2.574 620.131 C -1.326 620.131 -6.426 616.031 -8.026 611.531 C -9.826 606.331 -8.926 602.731 -4.626 598.431 C -1.826 595.631 -0.626 595.131 3.274 595.131 C 6.874 595.131 8.474 595.731 10.974 597.931 Z" stroke="none" style="fill: rgb(44, 62, 80);"/>
      <path d="M -97.126 607.631 L -97.126 627.131 L -93.126 627.131 L -89.126 627.131 L -89.126 618.631 L -89.126 610.131 L -80.126 610.131 L -71.126 610.131 L -71.126 618.631 L -71.126 627.131 L -67.126 627.131 L -63.126 627.131 L -63.126 607.631 L -63.126 588.131 L -67.126 588.131 L -71.126 588.131 L -71.126 595.631 L -71.126 603.131 L -80.126 603.131 L -89.126 603.131 L -89.126 595.631 L -89.126 588.131 L -93.126 588.131 L -97.126 588.131 L -97.126 607.631 Z" stroke="none" style="fill: rgb(44, 62, 80);"/>
      <path d="M 66.874 607.631 L 66.874 627.131 L 78.374 627.131 L 89.874 627.131 L 89.874 623.631 L 89.874 620.231 L 82.174 619.931 L 74.374 619.631 L 74.074 603.831 L 73.774 588.131 L 70.374 588.131 L 66.874 588.131 L 66.874 607.631 Z" stroke="none" style="fill: rgb(44, 62, 80);"/>
      <path d="M 129.874 607.731 L 129.874 627.331 L 140.674 626.931 C 153.074 626.531 157.474 624.831 162.274 618.831 C 164.874 615.631 165.374 614.031 165.674 608.331 C 165.974 602.331 165.674 601.131 163.174 597.331 C 161.374 594.531 158.674 592.231 155.474 590.631 C 151.174 588.431 149.174 588.131 140.174 588.131 L 129.874 588.131 L 129.874 607.731 Z M 151.874 596.631 C 155.574 598.531 157.874 602.831 157.874 607.931 C 157.874 615.131 151.774 620.131 142.874 620.131 L 137.874 620.131 L 137.874 607.631 L 137.874 595.131 L 143.374 595.131 C 146.474 595.131 150.274 595.831 151.874 596.631 Z" stroke="none" style="fill: rgb(44, 62, 80);"/>
    </g>
  </g>
</svg>