<?xml version="1.0" encoding="utf-8"?>
<svg viewBox="337.9392 292.369 674.9398 223.1763" xmlns="http://www.w3.org/2000/svg">
  <g transform="matrix(0.0607680007815361, 0, 0, -0.0607680007815361, 278.83642578125, 548.116943359375)" fill="#000000" stroke="none" style="">
    <title>Icon</title>
    <path d="M2634 4195 c-160 -24 -316 -72 -454 -140 -114 -56 -120 -60 -230&#10;-139 -218 -159 -408 -397 -509 -641 -57 -137 -118 -392 -110 -455 l4 -25 255&#10;-3 256 -2 12 72 c86 483 500 828 992 828 396 0 753 -228 915 -585 34 -74 55&#10;-143 76 -252 6 -35 17 -63 23 -64 57 -5 493 5 500 11 10 10 -7 138 -31 240&#10;-128 544 -548 973 -1096 1120 -181 48 -417 62 -603 35z" style="fill: rgb(142, 68, 173);"/>
    <path d="M2832 3468 c-5 -7 -13 -74 -16 -148 -9 -176 -15 -231 -30 -235 -110&#10;-29 -157 -55 -223 -118 l-42 -40 -113 12 c-62 6 -156 16 -208 21 -130 14 -127&#10;14 -100 -15 30 -32 57 -39 225 -61 77 -9 144 -21 149 -25 5 -4 1 -29 -8 -55&#10;-9 -26 -16 -63 -16 -81 l0 -33 -102 0 c-57 0 -387 5 -735 12 -348 6 -636 9&#10;-639 5 -11 -10 45 -66 86 -87 22 -11 71 -20 130 -24 130 -10 140 -13 140 -43&#10;0 -70 44 -268 87 -388 37 -102 107 -237 181 -345 54 -79 167 -198 658 -689&#10;l592 -595 579 580 c319 318 595 599 614 623 117 150 195 294 253 465 41 122&#10;51 164 67 283 15 106 4 99 149 109 107 7 162 31 201 86 l23 31 -372 -6 c-205&#10;-4 -538 -10 -742 -14 l-370 -6 0 29 c0 16 -7 54 -15 84 -9 33 -11 57 -5 60 6&#10;3 72 14 147 24 168 22 193 29 224 63 l24 26 -60 -7 c-33 -4 -87 -9 -120 -12&#10;-33 -2 -106 -10 -163 -16 l-103 -11 -42 40 c-55 53 -109 85 -179 107 -34 10&#10;-59 24 -62 34 -3 9 -8 91 -12 182 -6 151 -13 190 -34 190 -4 0 -12 -6 -18 -12z&#10;m-7 -613 l0 -50 -93 -3 -93 -3 -14 35 c-8 20 -15 45 -15 56 0 20 5 21 108 18&#10;l107 -3 0 -50z m262 28 c-3 -16 -10 -41 -16 -56 l-11 -28 -92 3 -93 3 -3 39&#10;c-6 65 -4 66 114 66 l107 0 -6 -27z m-1452 -323 l43 0 -1 -47 c-1 -76 40 -140&#10;106 -168 47 -19 80 -19 120 1 68 34 104 84 109 148 1 21 5 39 8 41 3 1 70 -3&#10;150 -11 80 -7 182 -13 228 -14 72 0 84 -3 100 -22 63 -80 121 -131 181 -161&#10;62 -30 72 -32 171 -32 94 1 111 4 164 29 64 30 144 99 177 152 l21 34 86 0&#10;c48 0 125 4 172 9 47 5 114 11 149 13 l63 3 4 -45 c6 -66 35 -105 103 -141 55&#10;-28 113 -20 165 23 46 37 66 81 66 141 l0 44 101 7 c56 4 104 5 106 2 8 -7&#10;-15 -160 -33 -226 -52 -188 -167 -412 -272 -530 -18 -19 -32 -38 -32 -41 -1&#10;-28 -49 -5 -192 91 -89 61 -167 110 -173 110 -5 0 -66 -38 -134 -85 -69 -47&#10;-128 -85 -133 -85 -9 0 -41 21 -252 164 -162 110 -157 108 -178 93 -118 -82&#10;-375 -253 -384 -255 -7 -2 -68 35 -137 82 -69 48 -131 86 -137 86 -6 0 -68&#10;-39 -138 -87 -70 -48 -142 -97 -161 -110 -19 -13 -37 -23 -41 -23 -11 0 -122&#10;146 -168 222 -56 92 -99 186 -134 293 -31 97 -69 290 -59 301 3 3 33 3 65 0&#10;32 -3 78 -6 101 -6z m1274 -818 c30 -92 60 -186 67 -209 l13 -42 -117 -87&#10;c-64 -48 -119 -89 -121 -91 -2 -2 32 -37 77 -79 45 -42 80 -79 77 -84 -3 -4&#10;-34 -23 -70 -41 -46 -23 -68 -29 -77 -22 -15 12 -91 55 -158 90 -37 19 -60 23&#10;-135 23 l-90 0 -115 116 -115 115 29 22 c29 21 212 146 526 358 80 54 147 98&#10;150 99 3 0 29 -75 59 -168z m-715 25 c9 -23 16 -46 16 -49 0 -4 -17 -17 -37&#10;-29 -21 -13 -64 -43 -97 -66 -32 -24 -64 -43 -70 -43 -7 0 -27 15 -45 34 l-33&#10;34 64 43 c34 24 88 61 118 81 30 21 58 38 61 38 4 0 14 -19 23 -43z m1356 -4&#10;l21 -47 -28 -22 c-58 -47 -66 -49 -114 -18 -24 16 -46 30 -49 32 -6 4 62 61&#10;73 62 5 0 20 9 34 20 14 11 29 20 34 20 4 0 17 -21 29 -47z" style="fill: rgb(142, 68, 173);"/>
  </g>
  <g transform="matrix(1, 0, 0, 1, 730.8049926757812, -113.14071655273436)">
    <title>Title</title>
    <path d="M -135.126 433.631 L -135.126 446.131 L -115.626 446.131 L -96.126 446.131 L -96.126 503.131 L -96.126 560.131 L -80.126 560.131 L -64.126 560.131 L -64.126 503.131 L -64.126 446.131 L -44.626 446.131 L -25.126 446.131 L -25.126 433.631 L -25.126 421.131 L -80.126 421.131 L -135.126 421.131 L -135.126 433.631 Z" stroke="none" style="fill: rgb(44, 62, 80);"/>
    <path d="M -11.126 490.531 L -11.126 560.131 L 4.874 560.131 L 20.874 560.131 L 21.074 534.331 L 21.374 508.631 L 27.574 508.831 C 30.974 508.931 34.574 509.431 35.574 509.931 C 36.574 510.531 43.274 521.231 50.474 533.831 C 61.374 552.831 64.174 556.931 66.974 558.331 C 69.774 559.831 73.074 560.131 86.174 560.131 C 94.774 560.131 101.874 559.831 101.874 559.531 C 101.874 559.231 94.974 547.731 86.674 533.931 C 74.374 513.731 70.574 508.231 67.174 505.831 C 64.774 504.131 62.874 502.431 62.874 502.131 C 62.874 501.731 64.774 500.531 67.074 499.531 C 69.474 498.531 74.074 495.031 77.474 491.931 C 85.774 484.131 89.074 476.831 89.674 464.931 C 90.574 447.531 83.774 435.331 69.174 428.131 C 57.974 422.631 53.474 422.031 19.674 421.431 L -11.126 420.931 L -11.126 490.531 Z M 45.474 446.631 C 50.874 448.231 56.074 452.831 57.774 457.431 C 60.674 465.031 57.974 476.331 52.074 481.331 C 47.374 485.231 42.474 486.531 31.374 486.531 L 21.374 486.631 L 21.074 465.831 L 20.874 445.131 L 30.674 445.131 C 36.474 445.131 42.574 445.731 45.474 446.631 Z" stroke="none" style="fill: rgb(44, 62, 80);"/>
    <path d="M 119.874 490.631 L 119.874 560.131 L 135.874 560.131 L 151.874 560.131 L 151.874 490.631 L 151.874 421.131 L 135.874 421.131 L 119.874 421.131 L 119.874 490.631 Z" stroke="none" style="fill: rgb(44, 62, 80);"/>
    <path d="M 177.874 490.631 L 177.874 560.131 L 193.874 560.131 L 209.874 560.131 L 210.074 536.831 L 210.374 513.631 L 227.374 513.031 C 239.374 512.631 245.974 511.931 249.874 510.631 C 271.674 503.731 281.974 489.731 282.074 467.131 C 282.074 450.331 276.574 438.731 264.774 431.131 C 251.874 422.831 242.174 421.131 205.174 421.131 L 177.874 421.131 L 177.874 490.631 Z M 240.874 448.331 C 249.274 453.231 252.874 464.631 249.374 475.331 C 245.974 486.131 240.474 489.031 222.374 489.831 L 209.874 490.431 L 209.874 467.731 L 209.874 444.931 L 223.174 445.331 C 235.374 445.631 236.774 445.831 240.874 448.331 Z" stroke="none" style="fill: rgb(44, 62, 80);"/>
    <path d="M -4.626 589.031 C -12.826 592.831 -16.526 598.631 -16.626 607.831 C -16.626 613.131 -16.226 614.531 -13.626 618.331 C -7.526 626.931 3.074 629.631 12.674 625.031 C 24.774 619.131 26.574 600.731 15.874 591.831 C 10.174 587.031 2.074 585.931 -4.626 589.031 Z M 10.974 597.931 C 14.974 601.531 16.074 608.731 13.374 613.731 C 11.474 617.231 6.674 620.131 2.574 620.131 C -1.326 620.131 -6.426 616.031 -8.026 611.531 C -9.826 606.331 -8.926 602.731 -4.626 598.431 C -1.826 595.631 -0.626 595.131 3.274 595.131 C 6.874 595.131 8.474 595.731 10.974 597.931 Z" stroke="none" style="fill: rgb(44, 62, 80);"/>
    <path d="M -97.126 607.631 L -97.126 627.131 L -93.126 627.131 L -89.126 627.131 L -89.126 618.631 L -89.126 610.131 L -80.126 610.131 L -71.126 610.131 L -71.126 618.631 L -71.126 627.131 L -67.126 627.131 L -63.126 627.131 L -63.126 607.631 L -63.126 588.131 L -67.126 588.131 L -71.126 588.131 L -71.126 595.631 L -71.126 603.131 L -80.126 603.131 L -89.126 603.131 L -89.126 595.631 L -89.126 588.131 L -93.126 588.131 L -97.126 588.131 L -97.126 607.631 Z" stroke="none" style="fill: rgb(44, 62, 80);"/>
    <path d="M 66.874 607.631 L 66.874 627.131 L 78.374 627.131 L 89.874 627.131 L 89.874 623.631 L 89.874 620.231 L 82.174 619.931 L 74.374 619.631 L 74.074 603.831 L 73.774 588.131 L 70.374 588.131 L 66.874 588.131 L 66.874 607.631 Z" stroke="none" style="fill: rgb(44, 62, 80);"/>
    <path d="M 129.874 607.731 L 129.874 627.331 L 140.674 626.931 C 153.074 626.531 157.474 624.831 162.274 618.831 C 164.874 615.631 165.374 614.031 165.674 608.331 C 165.974 602.331 165.674 601.131 163.174 597.331 C 161.374 594.531 158.674 592.231 155.474 590.631 C 151.174 588.431 149.174 588.131 140.174 588.131 L 129.874 588.131 L 129.874 607.731 Z M 151.874 596.631 C 155.574 598.531 157.874 602.831 157.874 607.931 C 157.874 615.131 151.774 620.131 142.874 620.131 L 137.874 620.131 L 137.874 607.631 L 137.874 595.131 L 143.374 595.131 C 146.474 595.131 150.274 595.831 151.874 596.631 Z" stroke="none" style="fill: rgb(44, 62, 80);"/>
  </g>
</svg>