<?xml version="1.0" standalone="no"?>
<!DOCTYPE svg PUBLIC "-//W3C//DTD SVG 20010904//EN"
 "http://www.w3.org/TR/2001/REC-SVG-20010904/DTD/svg10.dtd">
<svg version="1.0" xmlns="http://www.w3.org/2000/svg"
 width="1045.000000pt" height="244.000000pt" viewBox="0 0 1045.000000 244.000000"
 preserveAspectRatio="xMidYMid meet">

<g transform="translate(0.000000,244.000000) scale(0.100000,-0.100000)"
fill="#2C3E50" stroke="none">
<path d="M70 1210 l0 -1140 1160 0 1160 0 0 1140 0 1140 -1160 0 -1160 0 0
-1140z m1620 922 c0 -46 -29 -144 -57 -192 -14 -25 -68 -88 -120 -141 l-93
-95 0 -148 c0 -137 1 -148 18 -141 9 4 56 10 105 13 107 6 198 -20 283 -80 54
-37 57 -38 75 -22 19 17 19 18 -6 44 -31 33 -31 41 1 71 l26 24 74 -78 c51
-54 86 -103 111 -155 l38 -77 3 -163 c4 -193 -6 -237 -81 -349 -91 -137 -238
-237 -386 -264 -58 -10 -71 -16 -71 -31 0 -16 10 -18 122 -18 111 0 124 -2
145 -22 51 -47 47 -48 -317 -48 -230 0 -340 3 -340 10 0 6 11 22 25 35 23 24
30 25 150 25 114 0 125 2 125 18 0 14 -14 20 -72 30 -96 17 -197 67 -285 142
-95 80 -100 89 -63 125 l30 29 30 -29 c29 -27 31 -28 47 -12 12 12 15 21 8 31
-127 171 -148 346 -64 515 l30 60 -41 71 -42 70 -72 -66 c-39 -37 -108 -93
-153 -126 l-81 -59 -4 -142 c-2 -120 -6 -147 -23 -175 -11 -18 -24 -31 -29
-29 -5 2 -39 56 -75 120 -56 101 -67 116 -86 111 -26 -6 -46 15 -43 45 3 17
-17 32 -112 85 -63 35 -115 70 -115 77 0 8 16 22 35 31 28 15 62 18 170 18
l136 0 54 76 c30 42 85 111 123 152 37 42 67 79 67 82 0 4 -33 25 -72 47 -64
35 -90 43 -208 62 -292 47 -360 62 -360 81 0 21 89 106 125 120 16 6 190 10
432 10 l405 0 102 97 c128 122 206 163 308 163 68 0 68 0 68 -28z"/>
<path d="M1911 1306 c-9 -11 -3 -26 29 -72 156 -223 78 -547 -163 -670 -156
-80 -353 -67 -484 33 -35 27 -50 33 -62 26 -28 -18 -17 -37 47 -80 87 -59 171
-83 286 -83 154 0 257 43 365 151 73 73 116 156 138 268 28 140 -3 278 -88
396 -34 47 -49 54 -68 31z"/>
<path d="M8541 1389 c-74 -347 -136 -640 -138 -650 -5 -18 4 -19 191 -19 108
0 196 2 196 4 0 2 61 289 135 637 74 349 135 640 135 647 0 9 -45 12 -193 12
l-193 0 -133 -631z"/>
<path d="M9785 2008 c-3 -7 -32 -141 -64 -297 -33 -156 -63 -286 -66 -289 -6
-6 -4 -9 -30 43 -11 21 -40 53 -63 70 -41 28 -49 30 -140 30 -84 0 -105 -4
-152 -26 -101 -47 -160 -114 -210 -238 -75 -185 -80 -413 -10 -511 39 -55 92
-75 200 -75 83 1 103 4 156 29 34 15 79 45 100 67 21 21 41 39 45 39 4 0 15
-29 24 -65 l18 -65 153 0 c151 0 154 0 159 23 25 103 265 1246 265 1260 0 16
-16 17 -190 17 -143 0 -192 -3 -195 -12z m-174 -659 l26 -30 -28 -132 c-15
-73 -32 -152 -38 -177 -20 -88 -130 -154 -172 -103 -33 39 -5 258 47 374 49
109 108 134 165 68z"/>
<path d="M2650 1913 c-5 -21 -13 -55 -16 -75 l-7 -38 153 0 152 0 -5 -22 c-3
-13 -53 -248 -112 -523 -58 -275 -108 -508 -111 -518 -5 -16 7 -17 203 -15
l208 3 21 100 c12 55 63 297 114 537 l93 438 156 2 156 3 11 50 c7 28 13 60
13 73 l1 22 -510 0 -509 0 -11 -37z"/>
<path d="M4659 1923 c-64 -33 -89 -74 -89 -146 0 -65 21 -101 73 -126 118 -57
282 4 307 115 25 112 -43 183 -176 184 -46 0 -73 -6 -115 -27z"/>
<path d="M6295 1928 c-8 -36 -255 -1201 -255 -1205 0 -1 92 -3 205 -3 204 0
205 0 210 23 3 12 30 135 59 272 l53 250 122 3 c114 2 122 1 117 -15 -12 -39
-106 -496 -106 -514 0 -19 8 -19 203 -17 l202 3 127 585 c69 322 129 597 132
613 l6 27 -208 0 -208 0 -53 -247 c-29 -137 -55 -258 -58 -270 -5 -22 -9 -23
-124 -23 -65 0 -119 2 -119 4 0 2 25 119 55 260 30 141 55 260 55 266 0 6 -74
10 -205 10 -204 0 -205 0 -210 -22z"/>
<path d="M4145 1561 c-58 -14 -104 -43 -155 -97 -28 -30 -55 -54 -60 -54 -4 0
-14 32 -21 70 l-12 70 -157 0 -156 0 -83 -392 c-45 -216 -85 -403 -88 -415
l-5 -23 196 0 c108 0 196 2 196 5 0 2 27 132 60 287 64 299 72 320 128 331 57
11 85 -31 97 -145 l7 -68 99 0 c71 0 101 4 104 13 3 6 23 95 45 197 38 173 39
186 23 198 -40 29 -146 40 -218 23z"/>
<path d="M7755 1559 c-247 -48 -387 -187 -414 -409 -26 -208 56 -360 223 -413
60 -19 93 -22 221 -22 163 0 228 12 333 62 165 78 264 291 233 501 -31 209
-134 281 -411 288 -74 2 -157 -1 -185 -7z m203 -149 c27 -51 -2 -309 -49 -436
-39 -103 -84 -145 -141 -131 -41 11 -52 52 -45 180 10 171 55 318 120 385 40
41 93 42 115 2z"/>
<path d="M5615 1537 c-78 -29 -115 -49 -144 -81 -14 -14 -30 -26 -36 -26 -7 0
-20 27 -29 60 l-17 61 -156 -3 -156 -3 -118 -555 c-65 -305 -118 -563 -119
-572 0 -17 16 -18 193 -18 l192 0 47 221 c26 122 49 223 51 225 2 2 26 -18 53
-44 93 -89 248 -116 367 -64 98 43 174 155 219 324 18 66 22 111 23 218 0 122
-2 139 -23 177 -12 24 -41 55 -63 70 -36 24 -53 28 -133 30 -74 2 -102 -2
-151 -20z m-38 -179 c19 -39 21 -66 12 -145 -15 -127 -53 -236 -99 -284 -33
-35 -43 -40 -67 -35 -15 4 -40 19 -55 34 l-27 27 38 177 c21 98 44 185 52 194
44 54 127 71 146 32z"/>
<path d="M4431 1156 c-45 -217 -85 -404 -88 -415 -5 -21 -3 -21 189 -21 l194
0 87 403 c48 221 87 408 87 415 0 9 -45 12 -193 12 l-193 0 -83 -394z"/>
</g>
</svg>
