<?xml version="1.0" encoding="utf-8"?>
<svg viewBox="10.3792 326.7341 478.2843 169.245" xmlns="http://www.w3.org/2000/svg">
  <g style="" transform="matrix(0.36714500188827515, 0, 0, 0.36125102639198303, -6.416210174560547, 319.91583251953125)">
    <path d="M 142.427 353.219 C 111.324 359.661 80.705 371.396 64.311 382.9 C 54.425 389.803 45.746 404.989 45.746 415.343 C 45.746 457.22 121.451 484.37 245.859 487.131 C 329.761 488.972 393.652 480.229 437.291 460.441 C 501.664 431.68 491.056 385.431 414.628 361.732 C 394.857 355.52 365.925 349.768 363.273 351.378 C 358.934 353.909 344.467 377.608 345.914 379.679 C 346.637 381.06 350.255 381.98 353.871 381.98 C 364.479 381.98 406.189 392.794 421.619 399.237 C 448.14 410.741 449.346 417.184 427.647 428.458 C 366.408 460.211 200.532 464.582 116.147 436.511 C 99.752 430.989 85.286 423.166 81.428 417.874 C 78.776 413.963 88.421 405.909 103.851 399.237 C 118.317 393.024 160.268 381.98 169.671 381.98 C 181.485 381.75 181.726 378.529 171.118 363.803 C 165.573 356.21 160.268 349.768 159.544 349.998 C 158.58 349.998 150.865 351.608 142.427 353.219 Z" style="fill: rgb(142, 68, 173);" fill="#000000" stroke="none"/>
    <g transform="matrix(0.074353, 0, 0, -0.070958, 49.847492, 421.064819)" fill="#000000" stroke="none" style="">
      <path d="M2570 5663 c-171 -17 -507 -139 -693 -251 -451 -270 -768 -725 -888&#10;-1272 -21 -93 -23 -131 -23 -340 0 -265 11 -334 65 -441 110 -218 273 -355&#10;506 -425 78 -24 104 -26 239 -26 83 0 186 5 230 12 132 19 420 111 409 131 -3&#10;4 -52 34 -108 65 -177 99 -186 104 -192 115 -9 13 21 47 60 66 37 20 138 13&#10;320 -22 l130 -24 150 147 c83 82 203 197 267 258 l117 109 -77 58 c-140 104&#10;-474 264 -866 414 -94 36 -175 69 -179 73 -11 10 38 67 74 85 37 20 133 19&#10;269 -1 l109 -16 60 41 c109 74 185 97 225 68 24 -18 23 -51 -3 -111 -12 -27&#10;-20 -50 -19 -52 5 -4 229 -54 244 -54 8 0 43 20 79 45 92 63 160 79 203 49 28&#10;-19 28 -37 -3 -101 -13 -29 -22 -53 -20 -53 2 0 76 -16 165 -35 89 -19 167&#10;-35 174 -35 7 0 82 52 167 116 344 259 405 294 515 302 64 4 74 2 94 -18 28&#10;-28 24 -73 -12 -152 -33 -72 -50 -91 -282 -311 -111 -105 -212 -204 -224 -221&#10;-23 -30 -24 -35 -17 -171 9 -194 2 -181 85 -177 60 3 70 1 79 -16 20 -38 -27&#10;-128 -108 -207 l-41 -39 0 -127 c0 -70 3 -130 8 -133 4 -2 31 2 60 9 61 16 97&#10;8 107 -25 10 -32 -36 -116 -103 -188 l-59 -63 -6 -122 c-8 -146 -20 -201 -54&#10;-245 -24 -32 -87 -71 -98 -61 -2 3 -20 95 -39 205 -75 425 -165 763 -247 927&#10;-16 31 -34 57 -40 57 -6 0 -100 -64 -208 -142 -108 -79 -241 -172 -294 -208&#10;l-96 -65 -1 -50 c-1 -27 -5 -121 -9 -207 -8 -171 -12 -186 -75 -232 -20 -16&#10;-29 -18 -35 -8 -4 7 -31 82 -60 167 -30 85 -58 155 -63 155 -6 0 -35 -23 -65&#10;-50 -262 -239 -617 -401 -935 -425 -81 -6 -92 -5 -145 20 -32 14 -68 36 -81&#10;48 -22 20 -23 20 -16 2 4 -11 60 -128 124 -261 171 -351 328 -629 572 -1008&#10;278 -432 799 -1136 842 -1136 12 0 95 99 262 315 39 50 142 191 230 315 1020&#10;1433 1466 2535 1359 3357 -20 146 -27 177 -77 331 -65 200 -176 398 -321 572&#10;-358 429 -735 635 -1267 690 -89 9 -372 11 -450 3z" style="fill: rgb(143, 68, 172);"/>
    </g>
  </g>
  <g transform="matrix(0.7355250716209412, 0, 0, 0.7355250716209412, 281.1909484863281, 24.669113159179688)" style="">
    <title>Title</title>
    <path d="M -135.126 433.631 L -135.126 446.131 L -115.626 446.131 L -96.126 446.131 L -96.126 503.131 L -96.126 560.131 L -80.126 560.131 L -64.126 560.131 L -64.126 503.131 L -64.126 446.131 L -44.626 446.131 L -25.126 446.131 L -25.126 433.631 L -25.126 421.131 L -80.126 421.131 L -135.126 421.131 L -135.126 433.631 Z" stroke="none" style="fill: rgb(170, 183, 184);"/>
    <path d="M -11.126 490.531 L -11.126 560.131 L 4.874 560.131 L 20.874 560.131 L 21.074 534.331 L 21.374 508.631 L 27.574 508.831 C 30.974 508.931 34.574 509.431 35.574 509.931 C 36.574 510.531 43.274 521.231 50.474 533.831 C 61.374 552.831 64.174 556.931 66.974 558.331 C 69.774 559.831 73.074 560.131 86.174 560.131 C 94.774 560.131 101.874 559.831 101.874 559.531 C 101.874 559.231 94.974 547.731 86.674 533.931 C 74.374 513.731 70.574 508.231 67.174 505.831 C 64.774 504.131 62.874 502.431 62.874 502.131 C 62.874 501.731 64.774 500.531 67.074 499.531 C 69.474 498.531 74.074 495.031 77.474 491.931 C 85.774 484.131 89.074 476.831 89.674 464.931 C 90.574 447.531 83.774 435.331 69.174 428.131 C 57.974 422.631 53.474 422.031 19.674 421.431 L -11.126 420.931 L -11.126 490.531 Z M 45.474 446.631 C 50.874 448.231 56.074 452.831 57.774 457.431 C 60.674 465.031 57.974 476.331 52.074 481.331 C 47.374 485.231 42.474 486.531 31.374 486.531 L 21.374 486.631 L 21.074 465.831 L 20.874 445.131 L 30.674 445.131 C 36.474 445.131 42.574 445.731 45.474 446.631 Z" stroke="none" style="fill: rgb(170, 183, 184);"/>
    <path d="M 119.874 490.631 L 119.874 560.131 L 135.874 560.131 L 151.874 560.131 L 151.874 490.631 L 151.874 421.131 L 135.874 421.131 L 119.874 421.131 L 119.874 490.631 Z" stroke="none" style="fill: rgb(170, 183, 184);"/>
    <path d="M 177.874 490.631 L 177.874 560.131 L 193.874 560.131 L 209.874 560.131 L 210.074 536.831 L 210.374 513.631 L 227.374 513.031 C 239.374 512.631 245.974 511.931 249.874 510.631 C 271.674 503.731 281.974 489.731 282.074 467.131 C 282.074 450.331 276.574 438.731 264.774 431.131 C 251.874 422.831 242.174 421.131 205.174 421.131 L 177.874 421.131 L 177.874 490.631 Z M 240.874 448.331 C 249.274 453.231 252.874 464.631 249.374 475.331 C 245.974 486.131 240.474 489.031 222.374 489.831 L 209.874 490.431 L 209.874 467.731 L 209.874 444.931 L 223.174 445.331 C 235.374 445.631 236.774 445.831 240.874 448.331 Z" stroke="none" style="fill: rgb(170, 183, 184);"/>
    <path d="M -4.626 589.031 C -12.826 592.831 -16.526 598.631 -16.626 607.831 C -16.626 613.131 -16.226 614.531 -13.626 618.331 C -7.526 626.931 3.074 629.631 12.674 625.031 C 24.774 619.131 26.574 600.731 15.874 591.831 C 10.174 587.031 2.074 585.931 -4.626 589.031 Z M 10.974 597.931 C 14.974 601.531 16.074 608.731 13.374 613.731 C 11.474 617.231 6.674 620.131 2.574 620.131 C -1.326 620.131 -6.426 616.031 -8.026 611.531 C -9.826 606.331 -8.926 602.731 -4.626 598.431 C -1.826 595.631 -0.626 595.131 3.274 595.131 C 6.874 595.131 8.474 595.731 10.974 597.931 Z" stroke="none" style="fill: rgb(170, 183, 184);"/>
    <path d="M -97.126 607.631 L -97.126 627.131 L -93.126 627.131 L -89.126 627.131 L -89.126 618.631 L -89.126 610.131 L -80.126 610.131 L -71.126 610.131 L -71.126 618.631 L -71.126 627.131 L -67.126 627.131 L -63.126 627.131 L -63.126 607.631 L -63.126 588.131 L -67.126 588.131 L -71.126 588.131 L -71.126 595.631 L -71.126 603.131 L -80.126 603.131 L -89.126 603.131 L -89.126 595.631 L -89.126 588.131 L -93.126 588.131 L -97.126 588.131 L -97.126 607.631 Z" stroke="none" style="fill: rgb(170, 183, 184);"/>
    <path d="M 66.874 607.631 L 66.874 627.131 L 78.374 627.131 L 89.874 627.131 L 89.874 623.631 L 89.874 620.231 L 82.174 619.931 L 74.374 619.631 L 74.074 603.831 L 73.774 588.131 L 70.374 588.131 L 66.874 588.131 L 66.874 607.631 Z" stroke="none" style="fill: rgb(170, 183, 184);"/>
    <path d="M 129.874 607.731 L 129.874 627.331 L 140.674 626.931 C 153.074 626.531 157.474 624.831 162.274 618.831 C 164.874 615.631 165.374 614.031 165.674 608.331 C 165.974 602.331 165.674 601.131 163.174 597.331 C 161.374 594.531 158.674 592.231 155.474 590.631 C 151.174 588.431 149.174 588.131 140.174 588.131 L 129.874 588.131 L 129.874 607.731 Z M 151.874 596.631 C 155.574 598.531 157.874 602.831 157.874 607.931 C 157.874 615.131 151.774 620.131 142.874 620.131 L 137.874 620.131 L 137.874 607.631 L 137.874 595.131 L 143.374 595.131 C 146.474 595.131 150.274 595.831 151.874 596.631 Z" stroke="none" style="fill: rgb(170, 183, 184);"/>
  </g>
</svg>